<?xml version="1.0" encoding="UTF-8"?><svg id="Layer_2" xmlns="http://www.w3.org/2000/svg" width="97.56" height="100" viewBox="0 0 97.56 100"><defs><style>.cls-1{fill:#c4161c;stroke-width:0px;}</style></defs><g id="Layer_1-2"><path class="cls-1" d="M26.39,52.7c0,2.32-1.84,4.21-4.11,4.21s-4.11-1.89-4.11-4.21,1.84-4.21,4.11-4.21,4.11,1.88,4.11,4.21M70.2,52.7c0-2.32,1.84-4.21,4.11-4.21s4.11,1.88,4.11,4.21-1.84,4.21-4.11,4.21-4.11-1.89-4.11-4.21M55.85,94.07v-7.16c16.77-3.48,29.44-18.71,29.44-36.91,0-15.09-8.7-28.14-21.24-34.14v59.24c-2.5,1.66-5.26,2.94-8.2,3.74v-22.46h-14.62v37.69c-20.58-3.57-36.31-21.98-36.31-44.07S20.65,9.5,41.23,5.93v7.15c-16.77,3.48-29.44,18.72-29.44,36.92,0,15.09,8.7,28.14,21.24,34.14V25.11c2.5-1.61,5.26-2.85,8.2-3.61v26.86h14.62V5.93c20.58,3.57,36.3,21.97,36.3,44.07s-15.72,40.5-36.3,44.07M48.78,0C21.88,0,0,22.43,0,50s21.88,50,48.78,50,48.78-22.43,48.78-50S75.68,0,48.78,0"/></g></svg>